<?xml version="1.0" encoding="utf-8"?>
<!-- Generator: Adobe Illustrator 28.0.0, SVG Export Plug-In . SVG Version: 6.00 Build 0)  -->
<svg version="1.1" id="Layer_1" xmlns="http://www.w3.org/2000/svg" xmlns:xlink="http://www.w3.org/1999/xlink" x="0px" y="0px"
	 viewBox="0 0 85.4 49.5" style="enable-background:new 0 0 85.4 49.5;" xml:space="preserve">
<style type="text/css">
	.st0{fill-rule:evenodd;clip-rule:evenodd;}
</style>
<path class="st0" d="M84.8,22.3C79.5,15.3,73,9.7,65.7,5.8C58.6,2.1,50.7,0,42.4,0c-8.3,0-16.2,2.1-23.3,5.8
	C11.8,9.7,5.3,15.3,0,22.2c-0.8,1-0.9,2.5,0,3.6c5.3,6.9,11.8,12.6,19.1,16.4c7.1,3.7,15,5.8,23.3,5.8s16.2-2.1,23.3-5.8
	c7.3-3.9,13.8-9.5,19.1-16.4C85.6,24.9,85.7,23.4,84.8,22.3z M21.9,37c-5.9-3.1-11.3-7.5-15.7-13c4.5-5.4,9.8-9.9,15.7-13
	c3.6-1.9,7.3-3.3,11.3-4.1C27.1,10.2,23,16.7,23,24.1c0,7.4,4.1,13.8,10.2,17.1C29.2,40.3,25.4,38.9,21.9,37L21.9,37z M38.6,24.2
	c-3.8,0-6.9-3.1-6.9-6.9s3.1-6.9,6.9-6.9s6.9,3.1,6.9,6.9S42.4,24.2,38.6,24.2z M62.9,37c-3.6,1.9-7.3,3.3-11.3,4.1
	c6.1-3.3,10.2-9.7,10.2-17.1c0-7.4-4.1-13.8-10.2-17.1c3.9,0.9,7.7,2.3,11.3,4.1c5.9,3.1,11.3,7.5,15.7,13
	C74.2,29.5,68.9,33.9,62.9,37L62.9,37z"/>
</svg>
