<?xml version="1.0" encoding="utf-8"?>
<!-- Generator: Adobe Illustrator 28.0.0, SVG Export Plug-In . SVG Version: 6.00 Build 0)  -->
<svg version="1.1" id="Layer_1" xmlns="http://www.w3.org/2000/svg" xmlns:xlink="http://www.w3.org/1999/xlink" x="0px" y="0px"
	 viewBox="0 0 88.9 86.8" style="enable-background:new 0 0 88.9 86.8;" xml:space="preserve">
<path d="M78.4,50.2c-10.9,1-21.7-3-29.5-10.7C41.2,31.8,37.3,21,38.3,10c0.2-2.6-0.9-5.1-3-6.6c-2.1-1.4-4.7-1.6-7-0.5
	C16.5,8.5,7.9,19.3,5,32c-2.9,12.7,0.1,26.1,8.2,36.4c8.1,10.2,20.5,16.2,33.5,16.3c8.1,0,16.1-2.3,22.9-6.6
	c6.9-4.3,12.4-10.5,15.9-17.8c1.1-2.2,0.9-4.9-0.5-7C83.5,51.1,81,50,78.4,50.2L78.4,50.2z M80.2,57.6c-3.1,6.2-7.8,11.5-13.7,15.1
	c-5.9,3.7-12.7,5.7-19.6,5.7c-9.8,0-19.1-3.9-26-10.8c-6.9-6.9-10.8-16.2-10.9-26c0-9.8,3.9-19.3,10.8-26.2c2.9-3,6.4-5.4,10.2-7.2
	h0.4c0.2-0.1,0.3-0.1,0.5,0c0.4,0.3,0.6,0.8,0.5,1.3c-1.1,12.7,3.4,25.2,12.4,34.2c9,9,21.5,13.5,34.2,12.4c0.4-0.1,0.9,0.1,1.1,0.5
	C80.2,56.9,80.3,57.3,80.2,57.6L80.2,57.6z M64.2,11.4l2.9-1.5v0c0.6-0.4,1.2-0.9,1.5-1.6l1.5-2.8c0.8-1.2,2.1-1.8,3.5-1.8
	c1.4,0,2.7,0.7,3.5,1.8l1.5,2.8h0C79,9,79.5,9.5,80.2,9.9l2.8,1.5v0c1.2,0.8,1.8,2.1,1.8,3.5c0,1.4-0.7,2.7-1.8,3.5l-2.8,1.5
	c-0.7,0.4-1.2,0.9-1.6,1.5l-1.5,2.9h0c-0.8,1.2-2.1,1.8-3.5,1.8c-1.4,0-2.7-0.7-3.5-1.8l-1.5-2.9c-0.4-0.6-0.9-1.2-1.5-1.5l-2.9-1.5
	c-1.2-0.8-1.8-2.1-1.8-3.5C62.3,13.5,63,12.2,64.2,11.4z M86.2,40.2l-1.5,0.8h0c-0.3,0.2-0.6,0.5-0.8,0.8L83,43c-0.3,0.6-1,1-1.7,1
	c-0.7,0-1.4-0.4-1.7-1l-0.7-1.2c-0.2-0.3-0.5-0.6-0.8-0.8l-1.4-0.8c-0.6-0.3-1-1-1-1.7c0-0.7,0.4-1.4,1-1.7l1.4-0.8
	c0.3-0.2,0.6-0.5,0.8-0.8l0.8-1.4c0.4-0.6,1-1,1.7-1s1.4,0.4,1.7,1l0.8,1.4h0c0.2,0.3,0.4,0.6,0.8,0.8l1.5,0.8h0
	c0.6,0.3,1,1,1.1,1.7C87.1,39.1,86.8,39.8,86.2,40.2L86.2,40.2z M45.5,5.5l1.4-0.8c0.3-0.2,0.6-0.4,0.8-0.8l0.8-1.5
	c0.4-0.6,1-1,1.7-1s1.4,0.4,1.7,1l0.8,1.5h0c0.2,0.3,0.5,0.6,0.8,0.8l1.4,0.8c0.6,0.4,1,1,1,1.7c0,0.7-0.4,1.4-1,1.7l-1.6,0.7
	c-0.3,0.2-0.6,0.5-0.8,0.8l-0.8,1.4c-0.3,0.6-1,1-1.7,1c-0.7,0-1.4-0.4-1.7-1l-0.8-1.4c-0.2-0.3-0.5-0.6-0.8-0.8l-1.2-0.9
	c-0.6-0.4-0.9-1-0.9-1.6C44.6,6.4,45,5.8,45.5,5.5L45.5,5.5z"/>
</svg>
