<?xml version="1.0" encoding="utf-8"?>
<!-- Generator: Adobe Illustrator 28.0.0, SVG Export Plug-In . SVG Version: 6.00 Build 0)  -->
<svg version="1.1" id="Layer_1" xmlns="http://www.w3.org/2000/svg" xmlns:xlink="http://www.w3.org/1999/xlink" x="0px" y="0px"
	 viewBox="0 0 83.3 86.9" style="enable-background:new 0 0 83.3 86.9;" xml:space="preserve">
<path d="M41.7,21.9c-5.9,0-11.6,2.4-15.8,6.5c-4.2,4.2-6.5,9.8-6.5,15.8s2.4,11.6,6.5,15.8c4.2,4.2,9.8,6.5,15.8,6.5
	s11.6-2.4,15.8-6.5c4.2-4.2,6.5-9.8,6.5-15.8c0-5.9-2.4-11.6-6.5-15.8C53.2,24.2,47.6,21.9,41.7,21.9L41.7,21.9z M41.7,60.8
	c-4.3-0.1-8.5-1.8-11.5-4.9c-3-3.1-4.7-7.3-4.7-11.6c0-4.3,1.8-8.5,4.8-11.6c3.1-3.1,7.2-4.8,11.6-4.8c4.3,0,8.5,1.7,11.6,4.7
	c3.1,3,4.9,7.2,4.9,11.5c0,4.4-1.8,8.7-4.9,11.8S46.1,60.8,41.7,60.8L41.7,60.8z M44.6,74.5v8.4c0,1.6-1.3,2.9-2.9,2.9
	s-2.9-1.3-2.9-2.9v-8.6c0-1.6,1.3-2.9,2.9-2.9s2.9,1.3,2.9,2.9V74.5z M22.4,63.4c1.1,1.2,1.1,3,0,4.2l-6.1,6
	c-0.6,0.6-1.3,0.9-2.1,0.9c-0.8,0-1.5-0.3-2-0.9c-0.6-0.5-0.9-1.3-0.9-2.1s0.3-1.5,0.9-2.1l6.1-6.1C19.5,62.2,21.3,62.3,22.4,63.4
	L22.4,63.4z M11.5,47.1H2.9c-1.6,0-2.9-1.3-2.9-2.9s1.3-2.9,2.9-2.9h8.6c1.6,0,2.9,1.3,2.9,2.9S13.1,47.1,11.5,47.1z M12.2,18.8
	L12.2,18.8c-1.1-1.2-1.1-3,0-4.2c1.1-1.2,3-1.2,4.2,0l6,6.1c1.1,1.2,1.1,3,0,4.2c-0.6,0.5-1.3,0.8-2.1,0.8c-0.8,0-1.5-0.3-2-0.8
	L12.2,18.8z M38.8,14V5.4c0-1.6,1.3-2.9,2.9-2.9s2.9,1.3,2.9,2.9V14c0,1.6-1.3,2.9-2.9,2.9S38.8,15.6,38.8,14z M60.9,24.9
	c-1.1-1.2-1.1-3,0-4.2l6.1-6.1c1.2-1.2,3-1.2,4.2,0s1.2,3,0,4.2L65,24.9c-0.5,0.5-1.3,0.8-2,0.8C62.2,25.7,61.5,25.4,60.9,24.9z
	 M83.3,44.1c0,1.6-1.3,2.9-2.9,2.9h-8.6c-1.6,0-2.9-1.3-2.9-2.9s1.3-2.9,2.9-2.9h8.6c0.8,0,1.5,0.3,2.1,0.9S83.3,43.4,83.3,44.1
	L83.3,44.1z M71.1,69.5L71.1,69.5c1.1,1.2,1.1,3,0,4.2c-0.5,0.6-1.3,0.9-2,0.9c-0.8,0-1.5-0.3-2.1-0.9l-6.1-6.1
	c-1.2-1.2-1.2-3,0-4.2s3-1.2,4.2,0L71.1,69.5z"/>
</svg>
